<?xml version="1.0" encoding="UTF-8"?>
<svg width="469px" height="127px" viewBox="0 0 469 127" version="1.1" xmlns="http://www.w3.org/2000/svg" xmlns:xlink="http://www.w3.org/1999/xlink">
    <!-- Generator: Sketch 51.3 (57544) - http://www.bohemiancoding.com/sketch -->
    <title>1_web</title>
    <desc>Created with Sketch.</desc>
    <defs></defs>
    <g id="Page-1" stroke="none" stroke-width="1" fill="none" fill-rule="evenodd">
        <g id="Artboard" transform="translate(-5.000000, -90.000000)" fill-rule="nonzero">
            <g id="1_web" transform="translate(5.000000, 90.000000)">
                <g id="Group">
                    <g id="Layer0_0_FILL-link">
                        <g id="Layer0_0_FILL">
                            <path d="M61.95,64 L61.4,65.1 L88.4,126.45 L111.2,126.45 L72.85,39.2 L65.4,56.15 C64.2333333,58.7833333 63.0833333,61.4 61.95,64 Z M55.95,77.75 L48.75,94.25 L63.2,94.25 L55.95,77.75 Z" id="Shape" fill="#2CC76A"></path>
                            <path d="M33.45,103.1 L33.45,103.05 L10.65,103.05 L0.35,126.45 L78.9,126.45 L68.65,103.1 L33.45,103.1 Z M67.2,26.3 L55.75,0.25 L14.5,94.25 L37.35,94.25 L67.2,26.3 Z" id="Shape" fill="#2DB6D8"></path>
                        </g>
                    </g>
                </g>
                <g id="Group" transform="translate(127.000000, 52.000000)" fill="#000000">
                    <g id="Layer0_1_FILL-link">
                        <g id="Layer0_1_FILL">
                            <path d="M73.45,17.95 L63.55,1.85 L50.7,1.85 L66.95,25.85 L49.85,51.4 L31.3,1.85 L19.95,1.85 L0.8,52.3 L12.05,52.3 L16,41.05 L34.9,41.05 L38.65,52.3 L61.8,52.3 L73.05,34.85 L84.05,52.3 L97.3,52.3 L79.7,25.95 L95.85,1.85 L83.7,1.85 L73.45,17.95 Z M25.65,14.25 L32,32.8 L18.9,32.8 L25.45,14.25 L25.65,14.25 Z M139.5,11.15 L139.5,1.85 L101.75,1.85 L101.75,52.3 L140.05,52.3 L140.05,43 L112.9,43 L112.9,30.6 L137.3,30.6 L137.3,21.95 L112.9,21.95 L112.9,11.15 L139.5,11.15 Z M190.15,52.3 L190.15,1.85 L179.75,1.85 L179.75,35.7 L158.6,1.85 L147.5,1.85 L147.5,52.3 L157.9,52.3 L157.9,18.5 L179,52.3 L190.15,52.3 Z M195.95,11.15 L211.05,11.15 L211.05,52.3 L222.1,52.3 L222.1,11.15 L237.25,11.15 L237.25,1.85 L195.95,1.85 L195.95,11.15 Z M281.05,5.95 C278.25,3.21666667 274.65,1.85 270.25,1.85 L243,1.85 L243,52.3 L254.15,52.3 L254.15,32.6 L265.2,32.6 C267.933333,32.6 269.933333,33.1833333 271.2,34.35 C272.433333,35.5166667 273.25,37.4666667 273.65,40.2 C273.816667,42.3333333 274,44.45 274.2,46.55 C274.5,49.1166667 274.9,51.0333333 275.4,52.3 L286.5,52.3 C285.633333,51.1333333 285.066667,49.1833333 284.8,46.45 C284.666667,44.4166667 284.516667,42.3833333 284.35,40.35 C283.883333,33.6166667 281.433333,29.6833333 277,28.55 L277,28.4 C282.333333,26.2666667 285,22.05 285,15.75 C285,11.85 283.683333,8.58333333 281.05,5.95 Z M273.9,17.45 C273.9,22.25 271.366667,24.65 266.3,24.65 L254.15,24.65 L254.15,10.45 L266.3,10.45 C271.366667,10.45 273.9,12.7833333 273.9,17.45 Z M298.45,8.35 C294.083333,13.25 291.9,19.5666667 291.9,27.3 C291.9,34.8333333 294.083333,41.0333333 298.45,45.9 C303.016667,50.9666667 309.1,53.5 316.7,53.5 C324.266667,53.5 330.35,50.9666667 334.95,45.9 C339.316667,41.0333333 341.5,34.8333333 341.5,27.3 C341.5,19.5666667 339.316667,13.25 334.95,8.35 C330.416667,3.21666667 324.333333,0.65 316.7,0.65 C309.066667,0.65 302.983333,3.21666667 298.45,8.35 Z M302.95,27.3 C302.95,22.4 304,18.4166667 306.1,15.35 C308.5,11.75 312.033333,9.95 316.7,9.95 C321.366667,9.95 324.9,11.75 327.3,15.35 C329.366667,18.4166667 330.4,22.4 330.4,27.3 C330.4,32 329.366667,35.8666667 327.3,38.9 C324.833333,42.4 321.3,44.15 316.7,44.15 C312.066667,44.15 308.533333,42.4 306.1,38.9 C304,35.8666667 302.95,32 302.95,27.3 Z" id="Shape"></path>
                        </g>
                    </g>
                </g>
            </g>
        </g>
    </g>
</svg>